<?xml version="1.0" encoding="UTF-8"?>
<svg width="14px" height="17px" viewBox="0 0 14 17" version="1.1" xmlns="http://www.w3.org/2000/svg" xmlns:xlink="http://www.w3.org/1999/xlink">
    <!-- Generator: Sketch 41 (35326) - http://www.bohemiancoding.com/sketch -->
    <title>Apple Logo</title>
    <desc>Created with Sketch.</desc>
    <defs></defs>
    <g id="Page-1" stroke="none" stroke-width="1" fill="none" fill-rule="evenodd">
        <g id="Tablet-9″-Landscape" transform="translate(-618.000000, -492.000000)" fill="#FFFFFF">
            <g id="Promo-#4">
                <g id="Group-2" transform="translate(594.000000, 242.000000)">
                    <g id="Button" transform="translate(0.400000, 235.000000)">
                        <path d="M35.3591161,24.134207 C35.3401145,22.0117814 37.088266,20.9792143 37.168204,20.931142 C36.1781526,19.4804117 34.6436058,19.2821957 34.1043522,19.2663911 C32.8155164,19.1300765 31.565339,20.0414749 30.9087994,20.0414749 C30.2391551,20.0414749 29.2281365,19.2795616 28.1384903,19.3019515 C26.7362998,19.3236828 25.424531,20.1395951 24.7050893,21.406597 C23.2203399,23.9899901 24.3276773,27.786386 25.7501799,29.8745684 C26.4617588,30.8972576 27.2932446,32.0391397 28.3815803,31.9989697 C29.4463278,31.9548485 29.8440519,31.3167379 31.1289564,31.3167379 C32.4020667,31.3167379 32.7755474,31.9989697 33.8855057,31.9732872 C35.0282254,31.9548485 35.747667,30.9459884 36.4343472,29.9140799 C37.2566599,28.7419056 37.5868954,27.5875115 37.6,27.5282443 C37.5731356,27.5190249 35.3807387,26.6780887 35.3591161,24.134207 Z M33.2623827,17.8927082 C33.835053,17.1729405 34.2268801,16.193714 34.118112,15.2 C33.2892471,15.2368774 32.2526745,15.7762093 31.6557607,16.4801724 C31.1276459,17.1005028 30.6558809,18.1172652 30.7777535,19.0734433 C31.7088342,19.143247 32.6648136,18.601281 33.2623827,17.8927082 Z" id="Apple-Logo"></path>
                    </g>
                </g>
            </g>
        </g>
    </g>
</svg>